<mxfile host="app.diagrams.net" modified="2021-01-30T16:11:50.231Z" agent="5.0 (Windows NT 10.0; Win64; x64) AppleWebKit/537.36 (KHTML, like Gecko) Chrome/88.0.4324.96 Safari/537.36 Edg/88.0.705.53" etag="6Wf-aNhx9LffXe9l5w1a" version="14.2.9" type="github">
  <diagram id="pQX1SvtXO9qdr8QK7wjs" name="Page-1">
    <mxGraphModel dx="551" dy="624" grid="1" gridSize="10" guides="1" tooltips="1" connect="1" arrows="1" fold="1" page="1" pageScale="1" pageWidth="827" pageHeight="1169" math="0" shadow="0">
      <root>
        <mxCell id="0" />
        <mxCell id="1" parent="0" />
        <mxCell id="0lMqRcoK0Yy_05i4cxck-2" value="S_NAME" style="whiteSpace=wrap;html=1;align=center;" parent="1" vertex="1">
          <mxGeometry x="550" y="350" width="100" height="40" as="geometry" />
        </mxCell>
        <mxCell id="0lMqRcoK0Yy_05i4cxck-33" style="edgeStyle=orthogonalEdgeStyle;rounded=0;orthogonalLoop=1;jettySize=auto;html=1;exitX=0;exitY=0.5;exitDx=0;exitDy=0;entryX=0.5;entryY=1;entryDx=0;entryDy=0;" parent="1" source="0lMqRcoK0Yy_05i4cxck-3" target="0lMqRcoK0Yy_05i4cxck-32" edge="1">
          <mxGeometry relative="1" as="geometry">
            <Array as="points">
              <mxPoint x="330" y="370" />
              <mxPoint x="330" y="750" />
              <mxPoint x="500" y="750" />
            </Array>
          </mxGeometry>
        </mxCell>
        <mxCell id="0lMqRcoK0Yy_05i4cxck-46" style="edgeStyle=orthogonalEdgeStyle;rounded=0;orthogonalLoop=1;jettySize=auto;html=1;exitX=0.5;exitY=1;exitDx=0;exitDy=0;entryX=0;entryY=0.5;entryDx=0;entryDy=0;" parent="1" source="0lMqRcoK0Yy_05i4cxck-3" target="0lMqRcoK0Yy_05i4cxck-41" edge="1">
          <mxGeometry relative="1" as="geometry">
            <Array as="points">
              <mxPoint x="500" y="370" />
              <mxPoint x="400" y="370" />
              <mxPoint x="400" y="280" />
            </Array>
          </mxGeometry>
        </mxCell>
        <mxCell id="0lMqRcoK0Yy_05i4cxck-3" value="SID" style="whiteSpace=wrap;html=1;align=center;" parent="1" vertex="1">
          <mxGeometry x="450" y="350" width="100" height="40" as="geometry" />
        </mxCell>
        <mxCell id="0lMqRcoK0Yy_05i4cxck-4" value="TERM_TAKEN" style="whiteSpace=wrap;html=1;align=center;" parent="1" vertex="1">
          <mxGeometry x="650" y="350" width="120" height="40" as="geometry" />
        </mxCell>
        <mxCell id="0lMqRcoK0Yy_05i4cxck-5" value="CREDIT_TRANSFER" style="whiteSpace=wrap;html=1;align=center;" parent="1" vertex="1">
          <mxGeometry x="900" y="350" width="160" height="40" as="geometry" />
        </mxCell>
        <mxCell id="0lMqRcoK0Yy_05i4cxck-6" value="CREDIT_EARNED" style="whiteSpace=wrap;html=1;align=center;" parent="1" vertex="1">
          <mxGeometry x="770" y="350" width="130" height="40" as="geometry" />
        </mxCell>
        <mxCell id="0lMqRcoK0Yy_05i4cxck-7" value="Student" style="text;html=1;strokeColor=none;fillColor=none;align=center;verticalAlign=middle;whiteSpace=wrap;rounded=0;" parent="1" vertex="1">
          <mxGeometry x="450" y="320" width="70" height="20" as="geometry" />
        </mxCell>
        <mxCell id="0lMqRcoK0Yy_05i4cxck-8" value="COURSE_NAME" style="whiteSpace=wrap;html=1;align=center;" parent="1" vertex="1">
          <mxGeometry x="550" y="470" width="120" height="40" as="geometry" />
        </mxCell>
        <mxCell id="0lMqRcoK0Yy_05i4cxck-38" style="edgeStyle=orthogonalEdgeStyle;rounded=0;orthogonalLoop=1;jettySize=auto;html=1;" parent="1" source="0lMqRcoK0Yy_05i4cxck-9" target="0lMqRcoK0Yy_05i4cxck-31" edge="1">
          <mxGeometry relative="1" as="geometry">
            <Array as="points">
              <mxPoint x="400" y="490" />
              <mxPoint x="400" y="730" />
              <mxPoint x="600" y="730" />
            </Array>
          </mxGeometry>
        </mxCell>
        <mxCell id="0lMqRcoK0Yy_05i4cxck-9" value="COURSE_ID" style="whiteSpace=wrap;html=1;align=center;" parent="1" vertex="1">
          <mxGeometry x="450" y="470" width="100" height="40" as="geometry" />
        </mxCell>
        <mxCell id="0lMqRcoK0Yy_05i4cxck-10" value="CREDIT" style="whiteSpace=wrap;html=1;align=center;" parent="1" vertex="1">
          <mxGeometry x="670" y="470" width="100" height="40" as="geometry" />
        </mxCell>
        <mxCell id="0lMqRcoK0Yy_05i4cxck-11" value="INSTRUCTOR" style="whiteSpace=wrap;html=1;align=center;" parent="1" vertex="1">
          <mxGeometry x="770" y="470" width="100" height="40" as="geometry" />
        </mxCell>
        <mxCell id="0lMqRcoK0Yy_05i4cxck-35" style="edgeStyle=orthogonalEdgeStyle;rounded=0;orthogonalLoop=1;jettySize=auto;html=1;exitX=1;exitY=0.5;exitDx=0;exitDy=0;" parent="1" source="0lMqRcoK0Yy_05i4cxck-12" target="0lMqRcoK0Yy_05i4cxck-24" edge="1">
          <mxGeometry relative="1" as="geometry">
            <Array as="points">
              <mxPoint x="1020" y="490" />
              <mxPoint x="1020" y="530" />
              <mxPoint x="500" y="530" />
            </Array>
          </mxGeometry>
        </mxCell>
        <mxCell id="0lMqRcoK0Yy_05i4cxck-36" style="edgeStyle=orthogonalEdgeStyle;rounded=0;orthogonalLoop=1;jettySize=auto;html=1;exitX=1;exitY=0.5;exitDx=0;exitDy=0;entryX=0.5;entryY=1;entryDx=0;entryDy=0;" parent="1" source="0lMqRcoK0Yy_05i4cxck-12" target="0lMqRcoK0Yy_05i4cxck-34" edge="1">
          <mxGeometry relative="1" as="geometry">
            <mxPoint x="1100" y="400" as="targetPoint" />
          </mxGeometry>
        </mxCell>
        <mxCell id="0lMqRcoK0Yy_05i4cxck-12" value="D_ID" style="whiteSpace=wrap;html=1;align=center;" parent="1" vertex="1">
          <mxGeometry x="870" y="470" width="100" height="40" as="geometry" />
        </mxCell>
        <mxCell id="0lMqRcoK0Yy_05i4cxck-13" value="Course" style="text;html=1;strokeColor=none;fillColor=none;align=center;verticalAlign=middle;whiteSpace=wrap;rounded=0;" parent="1" vertex="1">
          <mxGeometry x="450" y="450" width="70" height="20" as="geometry" />
        </mxCell>
        <mxCell id="0lMqRcoK0Yy_05i4cxck-22" value="Department" style="text;html=1;strokeColor=none;fillColor=none;align=center;verticalAlign=middle;whiteSpace=wrap;rounded=0;" parent="1" vertex="1">
          <mxGeometry x="460" y="540" width="70" height="20" as="geometry" />
        </mxCell>
        <mxCell id="0lMqRcoK0Yy_05i4cxck-23" value="LOCATION" style="whiteSpace=wrap;html=1;align=center;" parent="1" vertex="1">
          <mxGeometry x="650" y="565" width="120" height="40" as="geometry" />
        </mxCell>
        <mxCell id="0lMqRcoK0Yy_05i4cxck-24" value="D_ID" style="whiteSpace=wrap;html=1;align=center;" parent="1" vertex="1">
          <mxGeometry x="450" y="565" width="100" height="40" as="geometry" />
        </mxCell>
        <mxCell id="0lMqRcoK0Yy_05i4cxck-25" value="D_NAME" style="whiteSpace=wrap;html=1;align=center;" parent="1" vertex="1">
          <mxGeometry x="550" y="565" width="100" height="40" as="geometry" />
        </mxCell>
        <mxCell id="0lMqRcoK0Yy_05i4cxck-29" value="Enrolled" style="text;html=1;strokeColor=none;fillColor=none;align=center;verticalAlign=middle;whiteSpace=wrap;rounded=0;" parent="1" vertex="1">
          <mxGeometry x="460" y="625" width="70" height="20" as="geometry" />
        </mxCell>
        <mxCell id="0lMqRcoK0Yy_05i4cxck-30" value="GRADE" style="whiteSpace=wrap;html=1;align=center;" parent="1" vertex="1">
          <mxGeometry x="650" y="645" width="120" height="40" as="geometry" />
        </mxCell>
        <mxCell id="0lMqRcoK0Yy_05i4cxck-31" value="COURSE_ID" style="whiteSpace=wrap;html=1;align=center;" parent="1" vertex="1">
          <mxGeometry x="550" y="645" width="100" height="40" as="geometry" />
        </mxCell>
        <mxCell id="0lMqRcoK0Yy_05i4cxck-32" value="SID" style="whiteSpace=wrap;html=1;align=center;" parent="1" vertex="1">
          <mxGeometry x="450" y="645" width="100" height="40" as="geometry" />
        </mxCell>
        <mxCell id="0lMqRcoK0Yy_05i4cxck-34" value="D_ID" style="whiteSpace=wrap;html=1;align=center;" parent="1" vertex="1">
          <mxGeometry x="1060" y="350" width="80" height="40" as="geometry" />
        </mxCell>
        <mxCell id="0lMqRcoK0Yy_05i4cxck-39" value="S_Password" style="whiteSpace=wrap;html=1;align=center;" parent="1" vertex="1">
          <mxGeometry x="1140" y="350" width="80" height="40" as="geometry" />
        </mxCell>
        <mxCell id="0lMqRcoK0Yy_05i4cxck-40" value="Timestamp" style="whiteSpace=wrap;html=1;align=center;" parent="1" vertex="1">
          <mxGeometry x="550" y="260" width="100" height="40" as="geometry" />
        </mxCell>
        <mxCell id="0lMqRcoK0Yy_05i4cxck-41" value="SID" style="whiteSpace=wrap;html=1;align=center;" parent="1" vertex="1">
          <mxGeometry x="450" y="260" width="100" height="40" as="geometry" />
        </mxCell>
        <mxCell id="0lMqRcoK0Yy_05i4cxck-42" value="LOG_ID" style="whiteSpace=wrap;html=1;align=center;" parent="1" vertex="1">
          <mxGeometry x="650" y="260" width="120" height="40" as="geometry" />
        </mxCell>
        <mxCell id="0lMqRcoK0Yy_05i4cxck-43" value="Login_staus" style="whiteSpace=wrap;html=1;align=center;" parent="1" vertex="1">
          <mxGeometry x="770" y="260" width="130" height="40" as="geometry" />
        </mxCell>
        <mxCell id="0lMqRcoK0Yy_05i4cxck-44" value="LOGIN_LOG" style="text;html=1;strokeColor=none;fillColor=none;align=center;verticalAlign=middle;whiteSpace=wrap;rounded=0;" parent="1" vertex="1">
          <mxGeometry x="450" y="230" width="70" height="20" as="geometry" />
        </mxCell>
        <mxCell id="zU3YEc2-LFt9zdk3v11H-1" value="CREDIT" style="whiteSpace=wrap;html=1;align=center;" vertex="1" parent="1">
          <mxGeometry x="770" y="645" width="100" height="40" as="geometry" />
        </mxCell>
      </root>
    </mxGraphModel>
  </diagram>
</mxfile>
